<?xml version="1.0" encoding="utf-8"?>
<!-- Generator: Adobe Illustrator 27.5.0, SVG Export Plug-In . SVG Version: 6.00 Build 0)  -->
<svg version="1.1" id="Layer_1" xmlns="http://www.w3.org/2000/svg" xmlns:xlink="http://www.w3.org/1999/xlink" x="0px" y="0px"
	 viewBox="0 0 492 492" style="enable-background:new 0 0 492 492;" xml:space="preserve">
<path style="fill:#F0F0F0;" d="M322.29,485.54c-23.69,0-42.97-19.28-42.97-42.97V330.02c0-23.69,19.28-42.97,42.97-42.97h18.07
	v-1.62c0-0.5-0.42-0.92-0.92-0.92H153.08c-0.5,0-0.92,0.42-0.92,0.92v1.62h18.07c23.69,0,42.97,19.28,42.97,42.97v112.54
	c0.01,11.47-4.46,22.26-12.58,30.38c-8.12,8.12-18.91,12.6-30.38,12.6H88.48c-23.69,0-42.97-19.28-42.97-42.97V330.02
	c0-23.69,19.28-42.97,42.97-42.97h18.08v-1.62c0-25.65,20.87-46.52,46.52-46.52h70.38v-7.1H162c-28.38,0-51.46-23.08-51.46-51.46
	V49.37c0-22.84,18.59-41.43,41.43-41.43h104.32c21.44,0,39.12,16.37,41.22,37.26h33.01c28.38,0,51.46,23.08,51.46,51.46v83.69
	c0,28.38-23.08,51.46-51.46,51.46h-61.46v7.1h70.37c25.65,0,46.52,20.87,46.52,46.52v1.62h18.09c23.69,0,42.97,19.28,42.97,42.97
	v112.54c0,23.7-19.28,42.98-42.97,42.98H322.29z"/>
<path style="fill:#FFFFFF;" d="M404.04,293.05h-24.09v-7.62c0-22.34-18.18-40.52-40.52-40.52h-76.37v-19.1h67.46
	c25.07,0,45.46-20.39,45.46-45.46V96.66c0-25.07-20.39-45.46-45.46-45.46h-38.8v-1.83c0-19.54-15.89-35.43-35.43-35.43H151.97
	c-19.54,0-35.43,15.89-35.43,35.43v130.98c0,25.07,20.39,45.46,45.46,45.46h67.46v19.1h-76.38c-22.34,0-40.52,18.18-40.52,40.52
	v7.62H88.48c-20.39,0-36.97,16.58-36.97,36.97v112.55c0,20.38,16.58,36.97,36.97,36.97h81.76c9.87,0,19.15-3.85,26.13-10.84
	c6.99-6.99,10.83-16.28,10.83-26.14V330.02c0-20.38-16.58-36.97-36.97-36.97h-24.07v-7.62c0-3.82,3.1-6.92,6.92-6.92h186.36
	c3.82,0,6.92,3.1,6.92,6.92v7.62h-24.07c-20.38,0-36.97,16.58-36.97,36.97v112.55c0,20.38,16.58,36.97,36.97,36.97h81.75
	c20.38,0,36.97-16.59,36.97-36.98V330.02C441.01,309.63,424.42,293.05,404.04,293.05z"/>
<g>
	<g>
		<path style="fill:#EDF3F4;" d="M190.41,442.57V330.02c0-11.1-9.08-20.17-20.17-20.17h-40.88H88.48c-11.1,0-20.17,9.08-20.17,20.17
			v112.54c0,11.1,9.08,20.17,20.17,20.17h81.75C181.33,462.74,190.41,453.66,190.41,442.57z"/>
	</g>
	<g>
		<path style="fill:#EDF3F4;" d="M302.11,330.02v112.54c0,11.1,9.08,20.17,20.17,20.17h81.75c11.1,0,20.17-9.08,20.17-20.17V330.02
			c0-11.1-9.08-20.17-20.17-20.17h-40.88h-40.88C311.19,309.85,302.11,318.93,302.11,330.02z"/>
	</g>
	<g>
		<path style="fill-rule:evenodd;clip-rule:evenodd;fill:#FFAE06;" d="M256,112.71h103.18V96.66c0-15.76-12.9-28.66-28.66-28.66
			h-55.6h-41.27v22.35C233.65,102.65,243.71,112.71,256,112.71z"/>
	</g>
	<g>
		<path style="fill-rule:evenodd;clip-rule:evenodd;fill:#FFC107;" d="M256,112.71c-12.29,0-22.35-10.06-22.35-22.35V68h41.27V49.37
			c0-10.25-8.38-18.63-18.63-18.63H151.97c-10.25,0-18.63,8.38-18.63,18.63V68v112.35c0,15.76,12.9,28.66,28.66,28.66h84.26h84.26
			c15.76,0,28.66-12.9,28.66-28.66v-67.64H256z"/>
	</g>
	<g>
		<g>
			<path d="M330.52,213.81H162c-18.45,0-33.46-15.01-33.46-33.46V49.37c0-12.92,10.51-23.43,23.43-23.43h104.32
				c12.92,0,23.43,10.51,23.43,23.43V63.2h50.8c18.45,0,33.46,15.01,33.46,33.46v83.69C363.98,198.79,348.97,213.81,330.52,213.81z
				 M151.97,35.54c-7.63,0-13.83,6.2-13.83,13.83v130.98c0,13.16,10.7,23.86,23.86,23.86h168.52c13.16,0,23.86-10.7,23.86-23.86
				V96.66c0-13.16-10.7-23.86-23.86-23.86h-55.6c-2.65,0-4.8-2.15-4.8-4.8V49.37c0-7.63-6.2-13.83-13.83-13.83H151.97z"/>
		</g>
		<g>
			<path d="M359.18,117.51H256c-14.97,0-27.15-12.18-27.15-27.15V68c0-2.65,2.15-4.8,4.8-4.8c2.65,0,4.8,2.15,4.8,4.8v22.35
				c0,9.68,7.88,17.55,17.55,17.55h103.18c2.65,0,4.8,2.15,4.8,4.8C363.98,115.35,361.83,117.51,359.18,117.51z"/>
		</g>
		<g>
			<path d="M274.92,72.8h-81.97c-2.65,0-4.8-2.15-4.8-4.8s2.15-4.8,4.8-4.8h81.97c2.65,0,4.8,2.15,4.8,4.8S277.57,72.8,274.92,72.8z
				"/>
		</g>
		<g>
			<path d="M246.26,266.5c-2.65,0-4.8-2.15-4.8-4.8V209c0-2.65,2.15-4.8,4.8-4.8c2.65,0,4.8,2.15,4.8,4.8v52.7
				C251.06,264.36,248.91,266.5,246.26,266.5z"/>
		</g>
		<g>
			<path d="M363.16,314.65c-2.65,0-4.8-2.15-4.8-4.8v-24.42c0-10.43-8.49-18.92-18.92-18.92H153.08c-10.44,0-18.92,8.49-18.92,18.92
				v24.42c0,2.65-2.15,4.8-4.8,4.8c-2.65,0-4.8-2.15-4.8-4.8v-24.42c0-15.73,12.8-28.52,28.52-28.52h186.35
				c15.73,0,28.52,12.8,28.52,28.52v24.42C367.96,312.5,365.81,314.65,363.16,314.65z"/>
		</g>
		<g>
			<path d="M170.24,467.54H88.48c-13.77,0-24.97-11.2-24.97-24.97V330.02c0-13.77,11.2-24.97,24.97-24.97h81.75
				c13.77,0,24.97,11.2,24.97,24.97v112.54C195.21,456.34,184.01,467.54,170.24,467.54z M88.48,314.65
				c-8.48,0-15.37,6.9-15.37,15.37v112.54c0,8.48,6.9,15.37,15.37,15.37h81.75c8.48,0,15.37-6.9,15.37-15.37V330.02
				c0-8.48-6.9-15.37-15.37-15.37H88.48z"/>
		</g>
		<g>
			<path d="M190.34,187.55c-2.65,0-4.8-2.15-4.8-4.8v-40.86c0-2.65,2.15-4.8,4.8-4.8c2.65,0,4.8,2.15,4.8,4.8v40.86
				C195.14,185.4,192.99,187.55,190.34,187.55z M160.97,187.55c-2.65,0-4.8-2.15-4.8-4.8v-40.86c0-2.65,2.15-4.8,4.8-4.8
				s4.8,2.15,4.8,4.8v40.86C165.77,185.4,163.62,187.55,160.97,187.55z"/>
		</g>
		<g>
			<path d="M190.34,167.12h-29.37c-2.65,0-4.8-2.15-4.8-4.8c0-2.65,2.15-4.8,4.8-4.8h29.37c2.65,0,4.8,2.15,4.8,4.8
				C195.14,164.97,192.99,167.12,190.34,167.12z"/>
		</g>
		<g>
			<path d="M220.45,187.55c-2.65,0-4.8-2.15-4.8-4.8v-40.86c0-2.65,2.15-4.8,4.8-4.8c2.65,0,4.8,2.15,4.8,4.8v40.86
				C225.25,185.4,223.1,187.55,220.45,187.55z"/>
		</g>
		<g>
			<path d="M233.01,146.69h-25.13c-2.65,0-4.8-2.15-4.8-4.8s2.15-4.8,4.8-4.8h25.13c2.65,0,4.8,2.15,4.8,4.8
				S235.66,146.69,233.01,146.69z"/>
		</g>
		<g>
			<path d="M288.23,187.55c-2.65,0-4.8-2.15-4.8-4.8v-18.98l-9.67,20.99c-0.78,1.7-2.49,2.79-4.36,2.79s-3.58-1.09-4.36-2.79
				l-9.67-20.99v18.98c0,2.65-2.15,4.8-4.8,4.8c-2.65,0-4.8-2.15-4.8-4.8v-40.86c0-2.25,1.57-4.21,3.77-4.69
				c2.2-0.48,4.44,0.63,5.39,2.68l14.47,31.4l14.47-31.4c0.95-2.05,3.19-3.16,5.39-2.68c2.2,0.48,3.77,2.43,3.77,4.69v40.86
				C293.03,185.4,290.88,187.55,288.23,187.55z"/>
		</g>
		<g>
			<path d="M331.55,187.55h-19.79c-2.65,0-4.8-2.15-4.8-4.8v-40.86c0-2.65,2.15-4.8,4.8-4.8c2.65,0,4.8,2.15,4.8,4.8v36.06h14.99
				c2.65,0,4.8,2.15,4.8,4.8S334.2,187.55,331.55,187.55z"/>
		</g>
		<g>
			<path d="M337.32,404.57h-4.61c-8.71,0-15.79-7.08-15.79-15.79v-4.96c0-8.71,7.08-15.79,15.79-15.79h4.61
				c6.17,0,11.18,5.02,11.18,11.18c0,2.65-2.15,4.8-4.8,4.8c-2.65,0-4.8-2.15-4.8-4.8c0-0.86-0.72-1.58-1.58-1.58h-4.61
				c-3.41,0-6.19,2.78-6.19,6.19v4.96c0,3.41,2.78,6.19,6.19,6.19h4.61c0.86,0,1.58-0.72,1.58-1.58c0-2.65,2.15-4.8,4.8-4.8
				c2.65,0,4.8,2.15,4.8,4.8C348.5,399.55,343.48,404.57,337.32,404.57z"/>
		</g>
		<g>
			<path d="M367.42,404.57c-4.67,0-8.85-2.79-10.65-7.1c-1.02-2.45,0.14-5.26,2.59-6.28c2.45-1.02,5.26,0.14,6.28,2.59
				c0.3,0.72,1,1.19,1.79,1.19c1.06,0,1.93-0.87,1.93-1.93s-0.87-1.93-1.93-1.93c-6.36,0-11.53-5.17-11.53-11.53
				c0-6.36,5.17-11.53,11.53-11.53c4.35,0,8.28,2.4,10.26,6.27c1.21,2.36,0.28,5.25-2.08,6.46c-2.36,1.21-5.25,0.28-6.46-2.08
				c-0.26-0.51-0.85-1.05-1.72-1.05c-1.07,0-1.93,0.87-1.93,1.93c0,1.07,0.87,1.93,1.93,1.93c6.36,0,11.53,5.17,11.53,11.53
				C378.96,399.4,373.78,404.57,367.42,404.57z"/>
		</g>
		<g>
			<path d="M397.87,404.57c-4.67,0-8.85-2.79-10.65-7.1c-1.02-2.45,0.14-5.26,2.59-6.28s5.26,0.14,6.28,2.59
				c0.3,0.72,1,1.19,1.78,1.19c1.07,0,1.93-0.87,1.93-1.93s-0.87-1.93-1.93-1.93c-6.36,0-11.53-5.17-11.53-11.53
				c0-6.36,5.17-11.53,11.53-11.53c4.35,0,8.28,2.4,10.26,6.27c1.21,2.36,0.28,5.25-2.08,6.46c-2.36,1.21-5.25,0.28-6.46-2.08
				c-0.26-0.51-0.85-1.05-1.72-1.05c-1.06,0-1.93,0.87-1.93,1.93c0,1.07,0.87,1.93,1.93,1.93c6.36,0,11.53,5.17,11.53,11.53
				C409.4,399.4,404.23,404.57,397.87,404.57z"/>
		</g>
		<g>
			<path d="M108.17,411.47c-8.21,0-14.88-6.68-14.88-14.88c0-2.65,2.15-4.8,4.8-4.8c2.65,0,4.8,2.15,4.8,4.8
				c0,2.91,2.37,5.28,5.28,5.28c2.91,0,5.28-2.37,5.28-5.28v-30.6c0-2.65,2.15-4.8,4.8-4.8s4.8,2.15,4.8,4.8v30.6
				C123.05,404.79,116.38,411.47,108.17,411.47z"/>
		</g>
		<g>
			<path d="M150.44,411.47c-6.08,0-11.51-3.63-13.84-9.24c-1.02-2.45,0.14-5.26,2.59-6.27c2.45-1.02,5.26,0.14,6.28,2.59
				c0.84,2.02,2.79,3.32,4.98,3.32c2.97,0,5.39-2.42,5.39-5.39s-2.42-5.39-5.39-5.39c-8.26,0-14.99-6.72-14.99-14.99
				c0-8.27,6.72-14.99,14.99-14.99c5.65,0,10.76,3.13,13.34,8.15c1.21,2.36,0.28,5.25-2.08,6.46s-5.25,0.28-6.46-2.08
				c-0.93-1.81-2.77-2.94-4.8-2.94c-2.97,0-5.39,2.42-5.39,5.39s2.42,5.39,5.39,5.39c8.26,0,14.99,6.72,14.99,14.99
				S158.71,411.47,150.44,411.47z"/>
		</g>
		<g>
			<path d="M404.04,467.54h-81.75c-13.77,0-24.97-11.2-24.97-24.97V330.02c0-13.77,11.2-24.97,24.97-24.97h81.75
				c13.77,0,24.97,11.2,24.97,24.97v112.54C429.01,456.34,417.81,467.54,404.04,467.54z M322.29,314.65
				c-8.48,0-15.37,6.9-15.37,15.37v112.54c0,8.48,6.9,15.37,15.37,15.37h81.75c8.48,0,15.37-6.9,15.37-15.37V330.02
				c0-8.48-6.9-15.37-15.37-15.37H322.29z"/>
		</g>
	</g>
</g>
</svg>
